<svg id="visual" viewBox="0 0 960 540" width="960" height="540" xmlns="http://www.w3.org/2000/svg" xmlns:xlink="http://www.w3.org/1999/xlink" version="1.1"><rect x="0" y="0" width="960" height="540" fill="#242424"></rect><path d="M0 118L137 89L274 69L411 77L549 84L686 85L823 76L960 104L960 541L823 541L686 541L549 541L411 541L274 541L137 541L0 541Z" fill="#242424"></path><path d="M0 187L137 146L274 115L411 117L549 204L686 165L823 190L960 180L960 541L823 541L686 541L549 541L411 541L274 541L137 541L0 541Z" fill="#3a2d2b"></path><path d="M0 232L137 168L274 181L411 170L549 173L686 212L823 165L960 183L960 541L823 541L686 541L549 541L411 541L274 541L137 541L0 541Z" fill="#503532"></path><path d="M0 206L137 265L274 205L411 197L549 194L686 253L823 274L960 244L960 541L823 541L686 541L549 541L411 541L274 541L137 541L0 541Z" fill="#673e3a"></path><path d="M0 262L137 295L274 308L411 242L549 320L686 293L823 306L960 266L960 541L823 541L686 541L549 541L411 541L274 541L137 541L0 541Z" fill="#7e4741"></path><path d="M0 315L137 306L274 291L411 323L549 334L686 317L823 342L960 287L960 541L823 541L686 541L549 541L411 541L274 541L137 541L0 541Z" fill="#964f49"></path><path d="M0 335L137 378L274 336L411 352L549 349L686 391L823 354L960 388L960 541L823 541L686 541L549 541L411 541L274 541L137 541L0 541Z" fill="#ae5850"></path><path d="M0 413L137 425L274 415L411 387L549 433L686 404L823 412L960 389L960 541L823 541L686 541L549 541L411 541L274 541L137 541L0 541Z" fill="#c76158"></path><path d="M0 434L137 436L274 459L411 441L549 437L686 475L823 432L960 458L960 541L823 541L686 541L549 541L411 541L274 541L137 541L0 541Z" fill="#e06960"></path><path d="M0 506L137 488L274 491L411 469L549 483L686 504L823 499L960 498L960 541L823 541L686 541L549 541L411 541L274 541L137 541L0 541Z" fill="#fa7268"></path></svg>