<svg id="visual" viewBox="0 0 900 600" width="900" height="600" xmlns="http://www.w3.org/2000/svg" xmlns:xlink="http://www.w3.org/1999/xlink" version="1.1"><rect x="0" y="0" width="900" height="600" fill="#242424"></rect><path d="M0 400L21.5 399.7C43 399.3 86 398.7 128.8 400.5C171.7 402.3 214.3 406.7 257.2 413.5C300 420.3 343 429.7 385.8 430.7C428.7 431.7 471.3 424.3 514.2 422C557 419.7 600 422.3 642.8 421.8C685.7 421.3 728.3 417.7 771.2 417.3C814 417 857 420 878.5 421.5L900 423L900 601L878.5 601C857 601 814 601 771.2 601C728.3 601 685.7 601 642.8 601C600 601 557 601 514.2 601C471.3 601 428.7 601 385.8 601C343 601 300 601 257.2 601C214.3 601 171.7 601 128.8 601C86 601 43 601 21.5 601L0 601Z" fill="#fa7268"></path><path d="M0 469L21.5 465.3C43 461.7 86 454.3 128.8 447.3C171.7 440.3 214.3 433.7 257.2 429.7C300 425.7 343 424.3 385.8 424.3C428.7 424.3 471.3 425.7 514.2 422C557 418.3 600 409.7 642.8 405.2C685.7 400.7 728.3 400.3 771.2 401.7C814 403 857 406 878.5 407.5L900 409L900 601L878.5 601C857 601 814 601 771.2 601C728.3 601 685.7 601 642.8 601C600 601 557 601 514.2 601C471.3 601 428.7 601 385.8 601C343 601 300 601 257.2 601C214.3 601 171.7 601 128.8 601C86 601 43 601 21.5 601L0 601Z" fill="#ef5f67"></path><path d="M0 503L21.5 501.2C43 499.3 86 495.7 128.8 487C171.7 478.3 214.3 464.7 257.2 465.2C300 465.7 343 480.3 385.8 489.5C428.7 498.7 471.3 502.3 514.2 500.3C557 498.3 600 490.7 642.8 483.8C685.7 477 728.3 471 771.2 467.7C814 464.3 857 463.7 878.5 463.3L900 463L900 601L878.5 601C857 601 814 601 771.2 601C728.3 601 685.7 601 642.8 601C600 601 557 601 514.2 601C471.3 601 428.7 601 385.8 601C343 601 300 601 257.2 601C214.3 601 171.7 601 128.8 601C86 601 43 601 21.5 601L0 601Z" fill="#e34c67"></path><path d="M0 495L21.5 495.5C43 496 86 497 128.8 502.3C171.7 507.7 214.3 517.3 257.2 514.8C300 512.3 343 497.7 385.8 496.5C428.7 495.3 471.3 507.7 514.2 514.7C557 521.7 600 523.3 642.8 524C685.7 524.7 728.3 524.3 771.2 525.7C814 527 857 530 878.5 531.5L900 533L900 601L878.5 601C857 601 814 601 771.2 601C728.3 601 685.7 601 642.8 601C600 601 557 601 514.2 601C471.3 601 428.7 601 385.8 601C343 601 300 601 257.2 601C214.3 601 171.7 601 128.8 601C86 601 43 601 21.5 601L0 601Z" fill="#d53867"></path><path d="M0 537L21.5 539.8C43 542.7 86 548.3 128.8 554.3C171.7 560.3 214.3 566.7 257.2 568.7C300 570.7 343 568.3 385.8 564C428.7 559.7 471.3 553.3 514.2 546.8C557 540.3 600 533.7 642.8 530.5C685.7 527.3 728.3 527.7 771.2 527.8C814 528 857 528 878.5 528L900 528L900 601L878.5 601C857 601 814 601 771.2 601C728.3 601 685.7 601 642.8 601C600 601 557 601 514.2 601C471.3 601 428.7 601 385.8 601C343 601 300 601 257.2 601C214.3 601 171.7 601 128.8 601C86 601 43 601 21.5 601L0 601Z" fill="#c62368"></path></svg>