<svg id="visual" viewBox="0 0 900 600" width="900" height="600" xmlns="http://www.w3.org/2000/svg" xmlns:xlink="http://www.w3.org/1999/xlink" version="1.1"><path d="M0 265L13.7 252C27.3 239 54.7 213 82 193C109.3 173 136.7 159 163.8 146C191 133 218 121 245.2 141C272.3 161 299.7 213 327 231C354.3 249 381.7 233 409 230C436.3 227 463.7 237 491 229C518.3 221 545.7 195 573 181C600.3 167 627.7 165 654.8 162C682 159 709 155 736.2 164C763.3 173 790.7 195 818 197C845.3 199 872.7 181 886.3 172L900 163L900 0L886.3 0C872.7 0 845.3 0 818 0C790.7 0 763.3 0 736.2 0C709 0 682 0 654.8 0C627.7 0 600.3 0 573 0C545.7 0 518.3 0 491 0C463.7 0 436.3 0 409 0C381.7 0 354.3 0 327 0C299.7 0 272.3 0 245.2 0C218 0 191 0 163.8 0C136.7 0 109.3 0 82 0C54.7 0 27.3 0 13.7 0L0 0Z" fill="#474747"></path><path d="M0 379L13.7 368C27.3 357 54.7 335 82 313C109.3 291 136.7 269 163.8 244C191 219 218 191 245.2 202C272.3 213 299.7 263 327 286C354.3 309 381.7 305 409 312C436.3 319 463.7 337 491 334C518.3 331 545.7 307 573 288C600.3 269 627.7 255 654.8 240C682 225 709 209 736.2 218C763.3 227 790.7 261 818 265C845.3 269 872.7 243 886.3 230L900 217L900 161L886.3 170C872.7 179 845.3 197 818 195C790.7 193 763.3 171 736.2 162C709 153 682 157 654.8 160C627.7 163 600.3 165 573 179C545.7 193 518.3 219 491 227C463.7 235 436.3 225 409 228C381.7 231 354.3 247 327 229C299.7 211 272.3 159 245.2 139C218 119 191 131 163.8 144C136.7 157 109.3 171 82 191C54.7 211 27.3 237 13.7 250L0 263Z" fill="#353535"></path><path d="M0 427L13.7 417C27.3 407 54.7 387 82 372C109.3 357 136.7 347 163.8 328C191 309 218 281 245.2 288C272.3 295 299.7 337 327 357C354.3 377 381.7 375 409 381C436.3 387 463.7 401 491 399C518.3 397 545.7 379 573 356C600.3 333 627.7 305 654.8 288C682 271 709 265 736.2 275C763.3 285 790.7 311 818 320C845.3 329 872.7 321 886.3 317L900 313L900 215L886.3 228C872.7 241 845.3 267 818 263C790.7 259 763.3 225 736.2 216C709 207 682 223 654.8 238C627.7 253 600.3 267 573 286C545.7 305 518.3 329 491 332C463.7 335 436.3 317 409 310C381.7 303 354.3 307 327 284C299.7 261 272.3 211 245.2 200C218 189 191 217 163.8 242C136.7 267 109.3 289 82 311C54.7 333 27.3 355 13.7 366L0 377Z" fill="#242424"></path><path d="M0 505L13.7 493C27.3 481 54.7 457 82 444C109.3 431 136.7 429 163.8 423C191 417 218 407 245.2 412C272.3 417 299.7 437 327 443C354.3 449 381.7 441 409 450C436.3 459 463.7 485 491 481C518.3 477 545.7 443 573 433C600.3 423 627.7 437 654.8 427C682 417 709 383 736.2 386C763.3 389 790.7 429 818 432C845.3 435 872.7 401 886.3 384L900 367L900 311L886.3 315C872.7 319 845.3 327 818 318C790.7 309 763.3 283 736.2 273C709 263 682 269 654.8 286C627.7 303 600.3 331 573 354C545.7 377 518.3 395 491 397C463.7 399 436.3 385 409 379C381.7 373 354.3 375 327 355C299.7 335 272.3 293 245.2 286C218 279 191 307 163.8 326C136.7 345 109.3 355 82 370C54.7 385 27.3 405 13.7 415L0 425Z" fill="#202020"></path><path d="M0 601L13.7 601C27.3 601 54.7 601 82 601C109.3 601 136.7 601 163.8 601C191 601 218 601 245.2 601C272.3 601 299.7 601 327 601C354.3 601 381.7 601 409 601C436.3 601 463.7 601 491 601C518.3 601 545.7 601 573 601C600.3 601 627.7 601 654.8 601C682 601 709 601 736.2 601C763.3 601 790.7 601 818 601C845.3 601 872.7 601 886.3 601L900 601L900 365L886.3 382C872.7 399 845.3 433 818 430C790.7 427 763.3 387 736.2 384C709 381 682 415 654.8 425C627.7 435 600.3 421 573 431C545.7 441 518.3 475 491 479C463.7 483 436.3 457 409 448C381.7 439 354.3 447 327 441C299.7 435 272.3 415 245.2 410C218 405 191 415 163.8 421C136.7 427 109.3 429 82 442C54.7 455 27.3 479 13.7 491L0 503Z" fill="#1c1c1c"></path></svg>